<svg width="512" height="512" viewBox="0 0 512 512" fill="none" xmlns="http://www.w3.org/2000/svg">
<g clip-path="url(#clip0_9_10)">
<path fill-rule="evenodd" clip-rule="evenodd" d="M187.733 17.0667C187.733 7.64102 195.373 0 204.799 0H255.999H307.199C316.625 0 324.266 7.64102 324.266 17.0667C324.266 26.4923 316.625 34.1333 307.199 34.1333H273.066V72.336C310.556 75.2329 345.395 87.5936 375.194 107.033C375.863 106.104 376.614 105.217 377.446 104.382L411.58 70.2485C419.912 61.9172 433.418 61.9172 441.75 70.2485C450.082 78.5797 450.082 92.087 441.75 100.418L408.474 133.694C449.178 173.372 474.453 228.801 474.453 290.133C474.453 410.781 376.648 508.587 255.999 508.587C135.351 508.587 37.546 410.781 37.546 290.133C37.546 175.227 126.261 81.0428 238.933 72.336V34.1333H204.799C195.373 34.1333 187.733 26.4923 187.733 17.0667ZM71.6793 290.133C71.6793 188.335 154.202 105.813 255.999 105.813C357.796 105.813 440.32 188.335 440.32 290.133C440.32 391.929 357.796 474.453 255.999 474.453C154.202 474.453 71.6793 391.929 71.6793 290.133ZM255.999 290.133V139.946C173.053 139.946 105.813 207.187 105.813 290.133C105.813 373.077 173.053 440.32 255.999 440.32C297.472 440.32 335.019 423.509 362.196 396.329L255.999 290.133Z" fill="#18181B"/>
<path fill-rule="evenodd" clip-rule="evenodd" d="M71.6793 290.133C71.6793 188.335 154.202 105.813 255.999 105.813C357.796 105.813 440.32 188.335 440.32 290.133C440.32 391.929 357.796 474.453 255.999 474.453C154.202 474.453 71.6793 391.929 71.6793 290.133ZM255.999 139.946V290.133L362.196 396.329C335.019 423.509 297.472 440.32 255.999 440.32C173.053 440.32 105.813 373.077 105.813 290.133C105.813 207.187 173.053 139.946 255.999 139.946Z" fill="white"/>
<path fill-rule="evenodd" clip-rule="evenodd" d="M187.733 17.0667C187.733 7.64102 195.373 0 204.799 0H255.999H307.199C316.625 0 324.266 7.64102 324.266 17.0667C324.266 26.4923 316.625 34.1333 307.199 34.1333H273.066V72.336C310.556 75.2329 345.395 87.5936 375.194 107.033C375.863 106.104 376.614 105.217 377.446 104.382L411.58 70.2485C419.912 61.9172 433.418 61.9172 441.75 70.2485C450.082 78.5797 450.082 92.087 441.75 100.418L408.474 133.694C449.178 173.372 474.453 228.801 474.453 290.133C474.453 410.781 376.648 508.587 255.999 508.587C135.351 508.587 37.546 410.781 37.546 290.133C37.546 175.227 126.261 81.0428 238.933 72.336V34.1333H204.799C195.373 34.1333 187.733 26.4923 187.733 17.0667ZM71.6793 290.133C71.6793 188.335 154.202 105.813 255.999 105.813C357.796 105.813 440.32 188.335 440.32 290.133C440.32 391.929 357.796 474.453 255.999 474.453C154.202 474.453 71.6793 391.929 71.6793 290.133ZM255.999 290.133V139.946C173.053 139.946 105.813 207.187 105.813 290.133C105.813 373.077 173.053 440.32 255.999 440.32C297.472 440.32 335.019 423.509 362.196 396.329L255.999 290.133Z" stroke="#18181B"/>
<path fill-rule="evenodd" clip-rule="evenodd" d="M71.6793 290.133C71.6793 188.335 154.202 105.813 255.999 105.813C357.796 105.813 440.32 188.335 440.32 290.133C440.32 391.929 357.796 474.453 255.999 474.453C154.202 474.453 71.6793 391.929 71.6793 290.133ZM255.999 139.946V290.133L362.196 396.329C335.019 423.509 297.472 440.32 255.999 440.32C173.053 440.32 105.813 373.077 105.813 290.133C105.813 207.187 173.053 139.946 255.999 139.946Z" stroke="#18181B"/>
</g>
<defs>
<clipPath id="clip0_9_10">
<rect width="512" height="512" fill="white"/>
</clipPath>
</defs>
</svg>
