<?xml version="1.0" standalone="no"?>
<!DOCTYPE svg PUBLIC "-//W3C//DTD SVG 20010904//EN"
 "http://www.w3.org/TR/2001/REC-SVG-20010904/DTD/svg10.dtd">
<svg version="1.0" xmlns="http://www.w3.org/2000/svg"
 width="700.000000pt" height="700.000000pt" viewBox="0 0 700.000000 700.000000"
 preserveAspectRatio="xMidYMid meet">
<metadata>
Created by potrace 1.14, written by Peter Selinger 2001-2017
</metadata>
<g transform="translate(0.000000,700.000000) scale(0.100000,-0.100000)"
fill="#000000" stroke="none">
<path d="M2695 6981 c-166 -75 -178 -318 -21 -416 l49 -30 269 -3 268 -3 0
-254 0 -254 -32 -5 c-18 -3 -87 -12 -153 -21 -511 -68 -1019 -288 -1445 -625
-129 -102 -360 -332 -462 -460 -347 -437 -545 -894 -635 -1470 -28 -180 -25
-653 5 -849 187 -1197 1054 -2158 2217 -2456 917 -235 1881 -26 2625 569 190
153 429 408 572 612 260 371 439 821 509 1274 27 174 37 536 20 717 -63 667
-346 1295 -801 1776 l-83 88 245 247 c221 223 247 253 267 305 44 120 21 229
-68 318 -89 89 -198 112 -318 68 -53 -20 -82 -45 -328 -290 -148 -148 -272
-268 -275 -266 -3 1 -49 28 -103 61 -334 199 -765 346 -1132 386 -55 7 -110
14 -122 16 l-23 4 0 255 0 254 268 3 269 3 49 30 c126 79 150 249 50 363 -66
75 -20 72 -876 72 -719 0 -767 -2 -805 -19z m1191 -1465 c139 -23 350 -77 469
-121 143 -52 403 -183 520 -261 569 -379 954 -947 1085 -1602 41 -207 54 -364
47 -577 -9 -275 -47 -484 -134 -740 -50 -148 -165 -388 -248 -519 -342 -541
-898 -945 -1505 -1095 -427 -105 -813 -105 -1239 0 -316 78 -613 221 -891 427
-140 105 -388 350 -487 483 -258 345 -424 740 -488 1159 -22 148 -30 438 -16
590 112 1177 1009 2108 2184 2265 140 19 565 13 703 -9z"/>
<path d="M3365 5089 c-481 -29 -937 -229 -1283 -563 -191 -184 -319 -358 -433
-589 -353 -721 -255 -1578 253 -2205 293 -361 724 -623 1180 -717 446 -91 900
-35 1307 161 196 94 346 196 526 358 l50 45 -727 728 -728 728 -2 1029 c-2
676 -6 1030 -13 1031 -5 1 -64 -2 -130 -6z"/>
</g>
</svg>
